<svg width="184" height="156" viewBox="0 0 184 156" fill="none" xmlns="http://www.w3.org/2000/svg">
<path d="M10.496 62H4.608V16.176H10.496V35.824H33.408V16.176H39.296V62H33.408V41.328H10.496V62Z" fill="#FFBA00"/>
<path d="M117.472 39.088C117.472 45.872 115.211 51.5467 110.688 56.112C106.123 60.72 100.533 63.024 93.92 63.024C87.264 63.024 81.6747 60.72 77.152 56.112C72.6293 51.5467 70.368 45.872 70.368 39.088C70.368 32.304 72.6293 26.6293 77.152 22.064C81.6747 17.456 87.264 15.152 93.92 15.152C100.576 15.152 106.165 17.4773 110.688 22.128C115.211 26.6933 117.472 32.3467 117.472 39.088ZM76.384 39.088C76.384 44.3787 78.048 48.752 81.376 52.208C84.7467 55.664 88.928 57.392 93.92 57.392C98.912 57.392 103.072 55.664 106.4 52.208C109.771 48.7947 111.456 44.4213 111.456 39.088C111.456 33.7547 109.771 29.3813 106.4 25.968C103.072 22.512 98.912 20.784 93.92 20.784C88.928 20.784 84.7467 22.512 81.376 25.968C78.048 29.424 76.384 33.7973 76.384 39.088Z" fill="#30989C"/>
<path d="M117.472 117.088C117.472 123.872 115.211 129.547 110.688 134.112C106.123 138.72 100.533 141.024 93.92 141.024C87.264 141.024 81.6747 138.72 77.152 134.112C72.6293 129.547 70.368 123.872 70.368 117.088C70.368 110.304 72.6293 104.629 77.152 100.064C81.6747 95.456 87.264 93.152 93.92 93.152C100.576 93.152 106.165 95.4773 110.688 100.128C115.211 104.693 117.472 110.347 117.472 117.088ZM76.384 117.088C76.384 122.379 78.048 126.752 81.376 130.208C84.7467 133.664 88.928 135.392 93.92 135.392C98.912 135.392 103.072 133.664 106.4 130.208C109.771 126.795 111.456 122.421 111.456 117.088C111.456 111.755 109.771 107.381 106.4 103.968C103.072 100.512 98.912 98.784 93.92 98.784C88.928 98.784 84.7467 100.512 81.376 103.968C78.048 107.424 76.384 111.797 76.384 117.088Z" fill="#B5300C"/>
<path d="M4.608 140V94.176H18.624C25.6213 94.176 31.232 96.288 35.456 100.512C39.7227 104.736 41.856 110.261 41.856 117.088C41.856 123.957 39.7227 129.504 35.456 133.728C31.232 137.909 25.6213 140 18.624 140H4.608ZM10.496 99.808V134.368H18.624C23.9573 134.368 28.16 132.853 31.232 129.824C34.304 126.752 35.84 122.507 35.84 117.088C35.84 111.712 34.304 107.488 31.232 104.416C28.16 101.344 23.9573 99.808 18.624 99.808H10.496Z" fill="#F00000"/>
<path d="M168.224 21.808V62H162.336V21.808H149.536V16.176H181.024V21.808H168.224Z" fill="#6BC39F"/>
<path d="M168.08 118.688V140H162.192V118.688L146.768 94.176H153.68L165.008 112.8H165.264L176.336 94.176H183.248L168.08 118.688Z" fill="#9F93E5"/>
</svg>
